<svg xmlns="http://www.w3.org/2000/svg" xmlns:xlink="http://www.w3.org/1999/xlink" width="24" height="24" viewBox="0 0 24 24">
    <defs>
        <filter id="prefix__a">
            <feColorMatrix in="SourceGraphic" values="0 0 0 0 1.000000 0 0 0 0 1.000000 0 0 0 0 1.000000 0 0 0 1.000000 0"/>
        </filter>
        <path id="prefix__b" d="M11.005 5.209v11.17l-4.88-4.88c-.39-.39-1.03-.39-1.42 0-.39.39-.39 1.02 0 1.41l6.59 6.59c.39.39 1.02.39 1.41 0l6.59-6.59c.39-.39.39-1.02 0-1.41-.187-.188-.44-.293-.705-.293-.265 0-.518.105-.705.293l-4.88 4.88V5.209c0-.55-.45-1-1-1s-1 .45-1 1z"/>
    </defs>
    <g fill="none" fill-rule="evenodd" filter="url(#prefix__a)" transform="translate(-77 -539)">
        <g transform="translate(77 539)">
            <mask id="prefix__c" fill="#fff">
                <use xlink:href="#prefix__b"/>
            </mask>
            <g fill="#000" fill-opacity=".87" mask="url(#prefix__c)">
                <path d="M0 0H24V24H0z"/>
            </g>
        </g>
    </g>
</svg>
