<svg xmlns="http://www.w3.org/2000/svg" width="48" height="48" viewBox="0 0 48 48">
    <g fill="#FFF">
        <path d="M10 34c-1.657 0-3 1.343-3 3s1.343 3 3 3 3-1.343 3-3c-.002-1.656-1.344-2.998-3-3zm0 4.5c-.828 0-1.5-.672-1.5-1.5s.672-1.5 1.5-1.5 1.5.672 1.5 1.5-.672 1.5-1.5 1.5zM37 34c-1.657 0-3 1.343-3 3s1.343 3 3 3 3-1.343 3-3c-.002-1.656-1.344-2.998-3-3zm0 4.5c-.828 0-1.5-.672-1.5-1.5s.672-1.5 1.5-1.5 1.5.672 1.5 1.5-.672 1.5-1.5 1.5z"/>
        <circle cx="10.5" cy="5.5" r="1.5"/>
        <circle cx="14.5" cy="5.5" r="1.5"/>
        <circle cx="33.5" cy="5.5" r="1.5"/>
        <circle cx="37.5" cy="5.5" r="1.5"/>
        <path d="M45.6 12.8h-2.4V5.6C43.197 2.509 40.691.003 37.6 0H10.4C7.309.003 4.803 2.509 4.8 5.6v7.2H2.4c-1.325.001-2.399 1.075-2.4 2.4v8c.001 1.325 1.075 2.399 2.4 2.4h2.4v20c.001 1.325 1.075 2.399 2.4 2.4h6.4c1.325-.001 2.399-1.075 2.4-2.4v-2.4h16v2.4c.001 1.325 1.075 2.399 2.4 2.4h6.4c1.325-.001 2.399-1.075 2.4-2.4v-20h2.4c1.325-.001 2.399-1.075 2.4-2.4v-8c-.001-1.325-1.075-2.399-2.4-2.4zM8 30.4c-.883 0-1.6-.717-1.6-1.6V11.2c0-.883.717-1.6 1.6-1.6h32c.883 0 1.6.717 1.6 1.6v17.6c0 .883-.717 1.6-1.6 1.6H8zm2.4-28.8h27.2c2.208.003 3.997 1.792 4 4v2.845c-.484-.288-1.037-.442-1.6-.445H8c-.563.003-1.116.157-1.6.445V5.6c.003-2.208 1.792-3.997 4-4zM2.4 24c-.442 0-.8-.358-.8-.8v-8c0-.442.358-.8.8-.8h2.4V24H2.4zm4 21.6v-3.22c.471.364 1.018.617 1.6.74v3.28h-.8c-.442 0-.8-.358-.8-.8zm3.2-2.4h1.6v3.2H9.6v-3.2zm4.8 2.4c0 .442-.358.8-.8.8h-.8v-3.2h1.6v2.4zm19.2 0v-2.4h1.6v3.2h-.8c-.442 0-.8-.358-.8-.8zm4.8.8h-1.6v-3.2h1.6v3.2zm2.4 0H40v-3.28c.582-.124 1.129-.377 1.6-.74v3.22c0 .442-.358.8-.8.8zm-1.6-4.8H8.8c-1.325-.001-2.399-1.075-2.4-2.4v-7.645c.484.288 1.037.442 1.6.445h32c.563-.003 1.116-.157 1.6-.445V39.2c-.001 1.325-1.075 2.399-2.4 2.4zm7.2-18.4c0 .442-.358.8-.8.8h-2.4v-9.6h2.4c.442 0 .8.358.8.8v8z"/>
        <path d="M16 34L32 34 32 35.143 16 35.143zM16 38L32 38 32 39.143 16 39.143z"/>
    </g>
</svg>
