<svg width="14" height="14" viewBox="0 0 14 14" fill="none" xmlns="http://www.w3.org/2000/svg">
<path d="M1.63814 12.1768C1.63814 12.608 1.99087 12.9571 2.42569 12.9571H11.611C12.0459 12.9571 12.3986 12.608 12.3986 12.1768V8.01259H12.9227V12.1768C12.9227 12.8948 12.3363 13.4776 11.611 13.4776H2.42569C1.70129 13.4776 1.11401 12.8948 1.11401 12.1768V5.41089L1.63814 5.52636V12.1768V12.1768Z" fill="#EF6A6E"/>
<path fill-rule="evenodd" clip-rule="evenodd" d="M12.3986 6.97156H13.3007V7.87367H12.3986V6.97156Z" fill="#EF6A6E"/>
<path d="M3.4757 7.49205C3.33136 7.49205 3.21318 7.60933 3.21318 7.75276V12.6964C3.21318 12.8407 3.33046 12.958 3.4748 12.958H6.09996C6.2443 12.958 6.36157 12.8407 6.36157 12.6964V7.75276C6.36157 7.60842 6.2443 7.49205 6.09996 7.49205H3.4748H3.4757ZM3.4757 6.97153H6.09996C6.53478 6.97153 6.8875 7.32155 6.8875 7.75276V12.6964C6.8875 13.1285 6.53478 13.4776 6.09996 13.4776H3.4748C3.04088 13.4776 2.68815 13.1285 2.68815 12.6973V7.75276C2.68815 7.32155 3.03998 6.97153 3.4757 6.97153ZM1.11396 4.76044C1.11396 5.10595 1.45406 5.40997 1.90061 5.40997C2.34715 5.40997 2.68815 5.10595 2.68815 4.76044V4.36983H1.11396V4.76044ZM0.588928 3.8493H3.21318V4.76044C3.21318 5.40636 2.62591 5.93139 1.90061 5.93139C1.17621 5.93139 0.588928 5.40636 0.588928 4.76044V3.8493V3.8493Z" fill="#EF6A6E"/>
<path d="M3.47572 4.76044C3.47572 5.10595 3.81672 5.40997 4.26236 5.40997C4.70891 5.40997 5.04991 5.10595 5.04991 4.76044V4.36982H3.47572V4.76044ZM2.95068 3.8493H5.57494V4.76044C5.57494 5.40636 4.98766 5.93139 4.26236 5.93139C3.53796 5.93139 2.95068 5.40636 2.95068 4.76044V3.8493ZM6.09997 4.76044C6.09997 5.10595 6.44097 5.40997 6.88752 5.40997C7.33316 5.40997 7.67416 5.10595 7.67416 4.76044V4.36982H6.09997V4.76044ZM5.57494 3.8493H8.2001V4.76044C8.2001 5.40636 7.61192 5.93139 6.88752 5.93139C6.16222 5.93139 5.57494 5.40636 5.57494 4.76044V3.8493Z" fill="#EF6A6E"/>
<path d="M8.72335 4.76044C8.72335 5.10595 9.06525 5.40997 9.5118 5.40997C9.95744 5.40997 10.2984 5.10595 10.2984 4.76044V4.36982H8.72425V4.76044H8.72335ZM8.20012 3.8493H10.8235V4.76044C10.8235 5.40636 10.2362 5.93139 9.5118 5.93139C8.7865 5.93139 8.19922 5.40636 8.19922 4.76044V3.8493H8.20012Z" fill="#EF6A6E"/>
<path d="M11.0869 4.76044C11.0869 5.10595 11.427 5.40997 11.8736 5.40997C12.3201 5.40997 12.6611 5.10595 12.6611 4.76044V4.36982H11.086V4.76044H11.0869ZM10.561 3.8493H13.1861V4.76044C13.1861 5.40636 12.598 5.93139 11.8736 5.93139C11.1483 5.93139 10.561 5.40636 10.561 4.76044V3.8493Z" fill="#EF6A6E"/>
<path fill-rule="evenodd" clip-rule="evenodd" d="M10.0152 12.0044H9.60561V11.4632C8.8767 11.391 8.51947 10.8912 8.46173 10.433L8.9606 10.2769C8.99217 10.6107 9.19154 10.9327 9.60561 11.0058V9.91784L9.47481 9.89168C8.93895 9.78253 8.60336 9.45416 8.60336 8.94446C8.60336 8.4501 9.01834 8.02881 9.60561 7.95574V7.40906H10.0152V7.96115C10.6611 8.04415 10.9128 8.47085 10.9967 8.80914L10.5249 8.98054C10.4933 8.78298 10.3354 8.51235 10.0152 8.42394V9.49114L10.0937 9.50648C10.6764 9.62105 11.0283 10.0063 11.0283 10.4744C11.0283 10.9381 10.6818 11.3856 10.0152 11.4632V12.0044V12.0044ZM10.514 10.5006C10.514 10.2823 10.3562 10.0793 10.0152 10.0008V11.0058C10.3562 10.9426 10.514 10.7397 10.514 10.5006ZM9.12298 8.92371C9.12298 9.14202 9.24928 9.32966 9.60561 9.39732V8.4077C9.3016 8.46453 9.12298 8.66751 9.12298 8.92191V8.92371Z" fill="#EF6A6E"/>
<path d="M1.37561 0.520521V0H12.6611V0.520521H1.37561Z" fill="#EF6A6E"/>
<path d="M3.27906 3.97924H2.75403V0.205688H3.27906V3.97924ZM5.6408 4.23995H5.11577V0.4664H5.6408V4.23995ZM8.26506 4.23995H7.74003V0.205688H8.26506V4.23995ZM10.8785 4.23995H10.3535V0.205688H10.8785V4.23995Z" fill="#EF6A6E"/>
<path fill-rule="evenodd" clip-rule="evenodd" d="M1.37573 0.205962L1.90107 0.206107L1.11417 3.84911L0.588828 3.84897L1.37573 0.205962Z" fill="#EF6A6E"/>
<path fill-rule="evenodd" clip-rule="evenodd" d="M12.6607 0.205614L12.1357 0.206596L12.6608 3.84934L13.1853 3.84953L12.6607 0.205614Z" fill="#EF6A6E"/>
</svg>
