<svg xmlns="http://www.w3.org/2000/svg" width="56" height="67" viewBox="0 0 56 67">
    <g fill="none" fill-rule="evenodd">
        <path fill="#FFCD31" d="M56 30.034C55.518 48.06 28.004 67.003 28.014 67 27.995 67.006.509 49.574 0 30.034v-.477C0 13.234 12.538 0 28.002 0 43.468 0 56 13.234 56 29.557v.477z"/>
        <g fill="#FFF">
            <path fill-rule="nonzero" d="M4.752 31.323c0 1.104.911 2 2.036 2h23.757c1.125 0 2.037-.896 2.037-2V20.66h1.357v10.663c0 1.84-1.52 3.332-3.394 3.332H6.788c-1.875 0-3.394-1.492-3.394-3.332V13.995l1.358.297v17.03z" transform="translate(9.333 13.862)"/>
            <path d="M32.582 17.994H33.94V19.326999999999998H32.582z" transform="translate(9.333 13.862)"/>
            <path fill-rule="nonzero" d="M9.503 19.327c-.375 0-.679.298-.679.666v12.663c0 .368.304.666.679.666h6.788c.375 0 .679-.298.679-.666V19.993c0-.368-.304-.666-.68-.666H9.504zm0-1.333h6.788c1.125 0 2.036.895 2.036 2v12.662c0 1.104-.911 2-2.036 2H9.503c-1.125 0-2.036-.896-2.036-2V19.993c0-1.104.911-1.999 2.036-1.999zM3.394 12.33c0 .886.882 1.665 2.036 1.665 1.155 0 2.037-.779 2.037-1.666v-1H3.394v1zM2.036 9.996h6.788v2.332c0 1.657-1.52 3-3.394 3s-3.394-1.343-3.394-3V9.997z" transform="translate(9.333 13.862)"/>
            <path fill-rule="nonzero" d="M9.503 12.33c0 .886.882 1.665 2.036 1.665 1.155 0 2.037-.779 2.037-1.666v-1H9.503v1zM8.145 9.996h6.788v2.332c0 1.657-1.52 3-3.394 3s-3.394-1.343-3.394-3V9.997z" transform="translate(9.333 13.862)"/>
            <path fill-rule="nonzero" d="M16.29 12.33c0 .886.883 1.665 2.037 1.665 1.155 0 2.037-.779 2.037-1.666v-1H16.29v1zm-1.357-2.333h6.788v2.332c0 1.657-1.52 3-3.394 3s-3.394-1.343-3.394-3V9.997z" transform="translate(9.333 13.862)"/>
            <path fill-rule="nonzero" d="M23.079 12.33c0 .886.881 1.665 2.036 1.665s2.037-.779 2.037-1.666v-1h-4.073v1zM21.72 9.996h6.788v2.332c0 1.657-1.52 3-3.394 3s-3.394-1.343-3.394-3V9.997z" transform="translate(9.333 13.862)"/>
            <path fill-rule="nonzero" d="M29.188 12.33c0 .886.882 1.665 2.036 1.665 1.155 0 2.037-.779 2.037-1.666v-1h-4.073v1zM27.83 9.996h6.788v2.332c0 1.657-1.52 3-3.394 3s-3.394-1.343-3.394-3V9.997z" transform="translate(9.333 13.862)"/>
            <path d="M26.418 30.883H25.36v-1.386c-1.888-.187-2.81-1.466-2.96-2.64l1.29-.4c.081.854.597 1.68 1.67 1.867v-2.786l-.34-.066c-1.385-.28-2.253-1.12-2.253-2.426 0-1.267 1.072-2.346 2.593-2.533v-1.4h1.058v1.414c1.67.213 2.322 1.306 2.54 2.172l-1.223.44c-.081-.507-.488-1.2-1.317-1.426v2.732l.204.04c1.507.293 2.417 1.28 2.417 2.48 0 1.186-.896 2.332-2.62 2.532v1.386zm1.29-3.852c0-.56-.407-1.08-1.29-1.28v2.573c.883-.16 1.29-.68 1.29-1.293zm-3.597-4.039c0 .56.325 1.04 1.249 1.213v-2.532c-.788.146-1.25.666-1.25 1.32z" transform="translate(9.333 13.862)"/>
            <path fill-rule="nonzero" d="M4.073 1.472L4.073 0.139 33.261 0.139 33.261 1.472z" transform="translate(9.333 13.862)"/>
            <path fill-rule="nonzero" d="M8.994 10.33L7.636 10.33 7.636.666 8.994.666zM15.103 10.996L13.745 10.996 13.745 1.333 15.103 1.333zM21.891 10.996L20.533 10.996 20.533.666 21.891.666zM28.651 10.996L27.293 10.996 27.293.666 28.651.666z" transform="translate(9.333 13.862)"/>
            <path d="M2.3 0.879L3.559 0.37 5.166 9.784 3.908 10.293z" transform="translate(9.333 13.862) rotate(22 3.733 5.332)"/>
            <path d="M31.513 1.006L32.772 0.498 35.008 9.657 33.749 10.166z" transform="translate(9.333 13.862) scale(-1 1) rotate(22 0 -165.78)"/>
        </g>
    </g>
</svg>
