<svg width="24" height="25" viewBox="0 0 24 25" fill="none" xmlns="http://www.w3.org/2000/svg">
<mask id="mask0" mask-type="alpha" maskUnits="userSpaceOnUse" x="2" y="4" width="20" height="17">
<path d="M9.99799 19.863V14.863H13.998V19.863C13.998 20.413 14.448 20.863 14.998 20.863H17.998C18.548 20.863 18.998 20.413 18.998 19.863V12.863H20.698C21.158 12.863 21.378 12.293 21.028 11.993L12.668 4.46301C12.288 4.12301 11.708 4.12301 11.328 4.46301L2.96799 11.993C2.62799 12.293 2.83799 12.863 3.29799 12.863H4.99799V19.863C4.99799 20.413 5.44799 20.863 5.99799 20.863H8.99799C9.54799 20.863 9.99799 20.413 9.99799 19.863Z" fill="white"/>
</mask>
<g mask="url(#mask0)">
<path fill-rule="evenodd" clip-rule="evenodd" d="M0 0.535034H24V24.535H0V0.535034Z" fill="#28430A"/>
</g>
</svg>
