<svg width="12" height="11" viewBox="0 0 12 11" fill="none" xmlns="http://www.w3.org/2000/svg">
<path d="M1.82799 7.89704C0.924993 7.89704 0.192993 8.58804 0.192993 9.44104C0.192993 10.294 0.924993 10.985 1.82799 10.985C2.73099 10.985 3.46299 10.294 3.46299 9.44104C3.46299 8.58804 2.73099 7.89704 1.82799 7.89704ZM1.38499 4.06504C0.754993 3.96504 0.192993 4.45504 0.192993 5.05704C0.192993 5.56004 0.589993 5.96304 1.11499 6.04804C3.30499 6.41004 5.02999 8.04604 5.41999 10.114C5.50999 10.61 5.93799 10.985 6.46999 10.985C7.10799 10.985 7.62499 10.455 7.52799 9.85904C7.01799 6.88404 4.53499 4.53904 1.38499 4.06504ZM1.36299 0.0200359C0.739993 -0.0429641 0.192993 0.431036 0.192993 1.02004C0.192993 1.53604 0.604993 1.96104 1.14499 2.01004C5.65299 2.43604 9.23799 5.82204 9.68799 10.079C9.73999 10.596 10.19 10.985 10.738 10.985C11.368 10.985 11.863 10.468 11.803 9.88004C11.255 4.68104 6.87499 0.537036 1.36299 0.0200359Z" fill="white"/>
</svg>
