<svg width="24" height="25" viewBox="0 0 24 25" fill="none" xmlns="http://www.w3.org/2000/svg">
<mask id="mask0" mask-type="alpha" maskUnits="userSpaceOnUse" x="3" y="3" width="18" height="19">
<path d="M14.655 5.51503L9.655 3.76503C9.235 3.61503 8.775 3.61503 8.355 3.75503L4.365 5.09503C3.555 5.37503 3.005 6.13503 3.005 6.99503V18.845C3.005 20.255 4.415 21.215 5.725 20.705L8.655 19.565C8.875 19.475 9.125 19.475 9.345 19.555L14.345 21.305C14.765 21.455 15.225 21.455 15.645 21.315L19.635 19.975C20.445 19.705 20.995 18.935 20.995 18.075V6.22503C20.995 4.81503 19.585 3.85503 18.275 4.36503L15.345 5.50503C15.125 5.58503 14.885 5.59503 14.655 5.51503V5.51503ZM15.005 19.425L9.005 17.315V5.64503L15.005 7.75503V19.425Z" fill="white"/>
</mask>
<g mask="url(#mask0)">
<path fill-rule="evenodd" clip-rule="evenodd" d="M0 0.535034H24V24.535H0V0.535034Z" fill="black" fill-opacity="0.54"/>
</g>
</svg>
