<svg width="22" height="22" viewBox="0 0 22 22" fill="none" xmlns="http://www.w3.org/2000/svg">
<path d="M11 21C16.5228 21 21 16.5228 21 11C21 5.47715 16.5228 1 11 1C5.47715 1 1 5.47715 1 11C1 16.5228 5.47715 21 11 21Z" stroke="black"/>
<path fill-rule="evenodd" clip-rule="evenodd" d="M8.05884 16.6905V5.70581H11.5835C12.3518 5.70581 12.9835 5.8211 13.4777 6.05169C13.9718 6.28228 14.3577 6.5764 14.6377 6.93287C14.9177 7.28934 15.113 7.66228 15.2224 8.05287C15.333 8.44228 15.3871 8.80228 15.3871 9.13169C15.3871 9.74581 15.2812 10.2729 15.0659 10.7129C14.8518 11.1517 14.5635 11.5105 14.2012 11.7905C13.8388 12.0705 13.4412 12.2764 13.0082 12.4082C12.573 12.5399 12.1435 12.6058 11.7141 12.6058H10.053V16.6905H8.05884ZM10.0518 10.8611H11.5506C12.0659 10.8611 12.4835 10.7046 12.8024 10.3905C13.12 10.0788 13.28 9.67993 13.28 9.19758C13.28 8.6811 13.1153 8.2611 12.7859 7.93758C12.4565 7.61287 12.0447 7.45169 11.5506 7.45169H10.0518V10.8611Z" fill="black"/>
</svg>
