<svg width="24" height="29" viewBox="0 0 24 29" fill="none" xmlns="http://www.w3.org/2000/svg">
<path fill-rule="evenodd" clip-rule="evenodd" d="M24 13C23.793 20.802 12.002 29.001 12.006 29C11.998 29.003 0.218 21.457 0 13V12.793C0 5.728 5.373 0 12 0C18.629 0 24 5.728 24 12.793V13Z" fill="#EF6A6E"/>
<path d="M12 20C16.4183 20 20 16.4183 20 12C20 7.58172 16.4183 4 12 4C7.58172 4 4 7.58172 4 12C4 16.4183 7.58172 20 12 20Z" stroke="white"/>
<path fill-rule="evenodd" clip-rule="evenodd" d="M9.64703 16.5525V7.76471H12.4668C13.0814 7.76471 13.5868 7.85694 13.9821 8.04142C14.3774 8.22589 14.6861 8.46118 14.9101 8.74636C15.1341 9.03153 15.2903 9.32989 15.3779 9.64236C15.4663 9.95389 15.5096 10.2419 15.5096 10.5054C15.5096 10.9967 15.4249 11.4184 15.2527 11.7704C15.0814 12.1214 14.8508 12.4085 14.5609 12.6325C14.271 12.8565 13.9529 13.0212 13.6066 13.1266C13.2583 13.232 12.9148 13.2847 12.5713 13.2847H11.2423V16.5525H9.64703V16.5525ZM11.2414 11.8889H12.4404C12.8527 11.8889 13.1868 11.7638 13.4419 11.5125C13.696 11.2631 13.824 10.944 13.824 10.5581C13.824 10.1449 13.6922 9.80894 13.4287 9.55012C13.1652 9.29036 12.8357 9.16142 12.4404 9.16142H11.2414V11.8889Z" fill="white"/>
</svg>
