<svg width="18" height="18" viewBox="0 0 18 18" fill="none" xmlns="http://www.w3.org/2000/svg">
<path d="M9 17C13.4183 17 17 13.4183 17 9C17 4.58172 13.4183 1 9 1C4.58172 1 1 4.58172 1 9C1 13.4183 4.58172 17 9 17Z" stroke="#51A625"/>
<path fill-rule="evenodd" clip-rule="evenodd" d="M6.64706 13.5525V4.76471H9.46683C10.0814 4.76471 10.5868 4.85694 10.9821 5.04142C11.3774 5.22589 11.6861 5.46118 11.9101 5.74636C12.1341 6.03153 12.2904 6.32989 12.3779 6.64236C12.4664 6.95389 12.5097 7.24189 12.5097 7.50542C12.5097 7.99671 12.4249 8.41836 12.2527 8.77036C12.0814 9.12141 11.8508 9.40847 11.5609 9.63247C11.2711 9.85647 10.9529 10.0212 10.6066 10.1266C10.2584 10.232 9.91483 10.2847 9.5713 10.2847H8.24236V13.5525H6.64706V13.5525ZM8.24142 8.88894H9.44048C9.85271 8.88894 10.1868 8.76377 10.4419 8.51247C10.696 8.26306 10.824 7.944 10.824 7.55812C10.824 7.14494 10.6922 6.80894 10.4287 6.55012C10.1652 6.29036 9.83577 6.16142 9.44048 6.16142H8.24142V8.88894Z" fill="#51A625"/>
</svg>
