<svg width="42" height="42" viewBox="0 0 42 42" fill="none" xmlns="http://www.w3.org/2000/svg">
<path d="M19.446 30V23.188H22.592C23.736 23.188 24.75 22.988 25.634 22.59C26.518 22.191 27.211 21.598 27.714 20.809C28.217 20.02 28.468 19.054 28.468 17.91C28.468 17.32 28.373 16.718 28.182 16.103C27.992 15.488 27.671 14.92 27.22 14.4C26.77 13.88 26.158 13.46 25.387 13.139C24.616 12.819 23.641 12.658 22.462 12.658H16.976V30H19.446ZM22.566 21.056H19.446V14.79H22.566C23.606 14.79 24.425 15.076 25.023 15.648C25.621 16.22 25.92 16.991 25.92 17.962C25.92 18.915 25.63 19.669 25.049 20.224C24.469 20.779 23.641 21.056 22.566 21.056Z" fill="#28430A"/>
<path d="M21 40C31.4934 40 40 31.4934 40 21C40 10.5066 31.4934 2 21 2C10.5066 2 2 10.5066 2 21C2 31.4934 10.5066 40 21 40Z" stroke="#28430A" stroke-width="2"/>
</svg>
