<svg width="42" height="42" viewBox="0 0 42 42" fill="none" xmlns="http://www.w3.org/2000/svg">
<path fill-rule="evenodd" clip-rule="evenodd" d="M0 0H12.783V12.783H0V0ZM2 2V10.783H10.783V2H2ZM29.217 0H42V12.783H29.217V0ZM31.217 2V10.783H40V2H31.217ZM0 28.304H12.783V41.087H0V28.304ZM2 30.304V39.087H10.783V30.304H2ZM17 39V34H19V39H17Z" fill="#37501B"/>
<path fill-rule="evenodd" clip-rule="evenodd" d="M15 0H26V11H23.9607V1.98843H15V0Z" fill="#37501B"/>
<path fill-rule="evenodd" clip-rule="evenodd" d="M41.63 15.4351V27.1961H30.043V25.1961H39.63V15.4351H41.63Z" fill="#37501B"/>
<path fill-rule="evenodd" clip-rule="evenodd" d="M4.56494 4.56494H8.21694V8.21694H4.56494V4.56494ZM4.56494 32.8699H8.21694V36.5219H4.56494V32.8699ZM33.7829 4.56494H37.4349V8.21694H33.7829V4.56494Z" fill="#37501B"/>
<path fill-rule="evenodd" clip-rule="evenodd" d="M18.5 16.5V6.5H20.5V18.5H2V26H0V16.5H18.5Z" fill="#37501B"/>
<path fill-rule="evenodd" clip-rule="evenodd" d="M24 15H34V20H32V17H26V24H19V28.5H26.5V41H24.5V30.5H17V22H24V15Z" fill="#37501B"/>
<path fill-rule="evenodd" clip-rule="evenodd" d="M30 31H41.5V41H39.5V33H32V41H30V31Z" fill="#37501B"/>
<path fill-rule="evenodd" clip-rule="evenodd" d="M11 26H5V24H11V26Z" fill="#37501B"/>
</svg>
