<svg width="46" height="46" viewBox="0 0 46 46" fill="none" xmlns="http://www.w3.org/2000/svg">
<path d="M11.13 31.217C9.61799 31.217 8.39099 32.444 8.39099 33.957C8.39099 35.469 9.61799 36.696 11.131 36.696C12.643 36.696 13.87 35.469 13.87 33.956C13.868 32.444 12.643 31.219 11.13 31.217ZM11.13 35.327C10.374 35.327 9.75999 34.713 9.75999 33.957C9.75999 33.2 10.374 32.587 11.13 32.587C11.887 32.587 12.5 33.2 12.5 33.957C12.5 34.713 11.887 35.325 11.13 35.327ZM33.957 31.217C32.444 31.217 31.217 32.444 31.217 33.957C31.217 35.469 32.444 36.696 33.957 36.696C35.469 36.696 36.696 35.469 36.696 33.956C36.694 32.444 35.469 31.219 33.956 31.217H33.957ZM33.957 35.327C33.2 35.327 32.587 34.713 32.587 33.957C32.587 33.2 33.2 32.587 33.957 32.587C34.713 32.587 35.327 33.2 35.327 33.957C35.325 34.713 34.713 35.325 33.957 35.327Z" fill="#28430A"/>
<path d="M11.587 7.47901C12.3436 7.47901 12.957 6.86564 12.957 6.10901C12.957 5.35238 12.3436 4.73901 11.587 4.73901C10.8303 4.73901 10.217 5.35238 10.217 6.10901C10.217 6.86564 10.8303 7.47901 11.587 7.47901Z" fill="#28430A"/>
<path d="M15.239 7.47901C15.9956 7.47901 16.609 6.86564 16.609 6.10901C16.609 5.35238 15.9956 4.73901 15.239 4.73901C14.4824 4.73901 13.869 5.35238 13.869 6.10901C13.869 6.86564 14.4824 7.47901 15.239 7.47901Z" fill="#28430A"/>
<path d="M30.761 7.47901C31.5176 7.47901 32.131 6.86564 32.131 6.10901C32.131 5.35238 31.5176 4.73901 30.761 4.73901C30.0044 4.73901 29.391 5.35238 29.391 6.10901C29.391 6.86564 30.0044 7.47901 30.761 7.47901Z" fill="#28430A"/>
<path d="M34.413 7.47901C35.1696 7.47901 35.783 6.86564 35.783 6.10901C35.783 5.35238 35.1696 4.73901 34.413 4.73901C33.6563 4.73901 33.043 5.35238 33.043 6.10901C33.043 6.86564 33.6563 7.47901 34.413 7.47901Z" fill="#28430A"/>
<path d="M41.9 13.2H39.8V6.9C39.797 4.195 37.605 2.003 34.9 2H11.1C8.395 2.003 6.203 4.195 6.2 6.9V13.2H4.1C2.94 13.201 2.001 14.14 2 15.3V22.3C2.001 23.46 2.94 24.399 4.1 24.4H6.2V41.9C6.201 43.06 7.14 43.999 8.3 44H13.9C15.06 43.999 15.999 43.06 16 41.9V39.8H30V41.9C30.001 43.06 30.94 43.999 32.1 44H37.7C38.86 43.999 39.799 43.06 39.8 41.9V24.4H41.9C43.06 24.399 43.999 23.46 44 22.3V15.3C43.999 14.14 43.06 13.201 41.9 13.2ZM9 28.6C8.227 28.6 7.6 27.973 7.6 27.2V11.8C7.6 11.027 8.227 10.4 9 10.4H37C37.773 10.4 38.4 11.027 38.4 11.8V27.2C38.4 27.973 37.773 28.6 37 28.6H9ZM11.1 3.4H34.9C36.832 3.402 38.398 4.968 38.4 6.9V9.39C37.976 9.137 37.493 9.003 37 9H9C8.507 9.003 8.024 9.137 7.6 9.39V6.9C7.602 4.968 9.168 3.402 11.1 3.4ZM4.1 23C3.714 23 3.4 22.686 3.4 22.3V15.3C3.4 14.914 3.714 14.6 4.1 14.6H6.2V23H4.1ZM7.6 41.9V39.083C8.012 39.401 8.49 39.622 9 39.73V42.6H8.3C7.914 42.6 7.6 42.286 7.6 41.9ZM10.4 39.8H11.8V42.6H10.4V39.8ZM14.6 41.9C14.6 42.286 14.286 42.6 13.9 42.6H13.2V39.8H14.6V41.9ZM31.4 41.9V39.8H32.8V42.6H32.1C31.714 42.6 31.4 42.286 31.4 41.9ZM35.6 42.6H34.2V39.8H35.6V42.6ZM37.7 42.6H37V39.73C37.51 39.621 37.988 39.4 38.4 39.082V41.9C38.4 42.286 38.086 42.6 37.7 42.6ZM36.3 38.4H9.7C8.54 38.399 7.601 37.46 7.6 36.3V29.61C8.024 29.863 8.507 29.997 9 30H37C37.493 29.997 37.976 29.863 38.4 29.61V36.3C38.399 37.46 37.46 38.399 36.3 38.4ZM42.6 22.3C42.6 22.686 42.286 23 41.9 23H39.8V14.6H41.9C42.286 14.6 42.6 14.914 42.6 15.3V22.3Z" fill="#28430A"/>
<path d="M8.39099 12.043H9.30399V12.957H8.39099V12.043ZM8.39099 14.783H9.30399V23H8.39099V14.783ZM15.696 32.13H29.391V33.043H15.696V32.13ZM15.696 34.87H29.391V35.783H15.696V34.87Z" fill="#28430A"/>
</svg>
