<svg width="42" height="42" viewBox="0 0 42 42" fill="none" xmlns="http://www.w3.org/2000/svg">
<path d="M41.76 11.674C42.08 11.354 42.08 10.834 41.76 10.514L31.486 0.24C31.166 -0.08 30.646 -0.08 30.326 0.24C29.297 1.269 27.623 1.27 26.594 0.24C26.274 -0.08 25.754 -0.08 25.434 0.24L0.24 25.434C-0.08 25.754 -0.08 26.274 0.24 26.594C1.27 27.624 1.27 29.297 0.24 30.326C-0.08 30.646 -0.08 31.166 0.24 31.486L10.514 41.76C10.834 42.08 11.354 42.08 11.674 41.76C12.703 40.73 14.377 40.73 15.406 41.76C15.566 41.92 15.776 42 15.986 42C16.196 42 16.406 41.92 16.566 41.76L26.552 31.773C26.872 31.453 26.872 30.933 26.552 30.613C26.232 30.293 25.712 30.293 25.392 30.613L15.93 40.075C14.49 39.105 12.588 39.105 11.15 40.075L1.925 30.851C2.895 29.411 2.895 27.509 1.925 26.07L26.07 1.925C27.51 2.895 29.412 2.895 30.85 1.925L40.075 11.149C39.105 12.589 39.105 14.491 40.075 15.929L30.613 25.392C30.293 25.712 30.293 26.232 30.613 26.552C30.933 26.872 31.453 26.872 31.773 26.552L41.76 16.566C42.08 16.246 42.08 15.726 41.76 15.406C40.73 14.376 40.73 12.702 41.76 11.674Z" fill="#28430A"/>
<path d="M37.5 14.29C37.5 13.858 37.332 13.451 37.026 13.146L29.604 5.724C29.299 5.418 28.892 5.25 28.46 5.25C28.028 5.25 27.622 5.418 27.316 5.724L5.724 27.316C5.418 27.622 5.25 28.028 5.25 28.46C5.25 28.892 5.418 29.299 5.724 29.604L13.146 37.026C13.451 37.332 13.858 37.5 14.29 37.5C14.722 37.5 15.128 37.332 15.434 37.026L37.026 15.434C37.332 15.128 37.5 14.722 37.5 14.29ZM14.29 35.853L6.897 28.46L28.46 6.897L35.853 14.29L14.29 35.853ZM28.5 27.75C28.303 27.75 28.11 27.83 27.969 27.969C27.829 28.109 27.75 28.303 27.75 28.5C27.75 28.697 27.83 28.89 27.969 29.03C28.109 29.17 28.303 29.25 28.5 29.25C28.697 29.25 28.89 29.17 29.03 29.03C29.17 28.89 29.25 28.697 29.25 28.5C29.25 28.302 29.17 28.108 29.03 27.969C28.89 27.829 28.697 27.75 28.5 27.75Z" fill="#28430A"/>
</svg>
