<svg width="42" height="42" viewBox="0 0 42 42" fill="none" xmlns="http://www.w3.org/2000/svg">
<path d="M28.949 21.796H20.648M20.47 10.136V21.559V10.136Z" stroke="#28430B" stroke-width="2.042" stroke-linecap="round"/>
<path d="M39.74 19.655C39.777 20.08 39.796 20.505 39.796 20.94C39.796 31.353 31.353 39.795 20.939 39.795C10.526 39.795 2.08398 31.353 2.08398 20.94C2.08398 10.526 10.526 2.08398 20.94 2.08398C25.935 2.08398 30.477 4.02098 33.851 7.19498" stroke="#28430B" stroke-width="2.186" stroke-linecap="round"/>
<path d="M37 13C37.5523 13 38 12.5523 38 12C38 11.4477 37.5523 11 37 11C36.4477 11 36 11.4477 36 12C36 12.5523 36.4477 13 37 13Z" fill="#28430B"/>
</svg>
