<svg width="24" height="24" viewBox="0 0 24 24" fill="none" xmlns="http://www.w3.org/2000/svg">
<path d="M12.5411 2.97909L21.5079 19.2047C21.6698 19.4977 21.5588 19.8637 21.2599 20.0224C21.1699 20.0702 21.0692 20.0952 20.9668 20.0952H3.03323C2.69336 20.0952 2.41785 19.8251 2.41785 19.492C2.41785 19.3917 2.44338 19.293 2.49213 19.2047L11.4589 2.97909C11.6208 2.68618 11.9943 2.57735 12.2931 2.73601C12.3981 2.79174 12.4843 2.8762 12.5411 2.97909Z" fill="#D0021B"/>
<path d="M11.835 8.63489C12.6961 8.63489 13.3941 9.3191 13.3941 10.1631C13.3941 10.2493 13.3867 10.3353 13.3719 10.4202L12.7402 14.048C12.6689 14.4576 12.3068 14.7571 11.8829 14.7571C11.4575 14.7571 11.0925 14.4598 11.0147 14.0499L10.3251 10.4155C10.17 9.59813 10.7202 8.81229 11.5541 8.66027C11.6467 8.64338 11.7407 8.63489 11.835 8.63489Z" fill="white"/>
<path d="M11.9139 17.3809C12.4373 17.3809 12.8616 16.9893 12.8616 16.5063C12.8616 16.0233 12.4373 15.6317 11.9139 15.6317C11.3905 15.6317 10.9662 16.0233 10.9662 16.5063C10.9662 16.9893 11.3905 17.3809 11.9139 17.3809Z" fill="white"/>
</svg>
